<svg width="24" height="24" viewBox="0 0 24 24" fill="none" xmlns="http://www.w3.org/2000/svg">
<g clip-path="url(#clip0)">
<path d="M9.22275 13.3824C9.22275 13.0918 8.98697 12.8563 8.69605 12.8563H6.85808C6.56749 12.8563 6.33167 13.0918 6.33167 13.3824V15.2202C6.33167 15.5112 6.56749 15.7468 6.85808 15.7468H8.69605C8.98697 15.7468 9.22275 15.5112 9.22275 15.2202V13.3824Z" fill="#7860B1"/>
<path d="M13.8162 13.3824C13.8162 13.0918 13.5804 12.8563 13.29 12.8563H11.4518C11.1612 12.8563 10.9254 13.0918 10.9254 13.3824V15.2202C10.9254 15.5112 11.1612 15.7468 11.4518 15.7468H13.29C13.5804 15.7468 13.8162 15.5112 13.8162 15.2202V13.3824Z" fill="#7860B1"/>
<path d="M18.4099 13.3824C18.4099 13.0918 18.1741 12.8563 17.8835 12.8563H16.0455C15.7546 12.8563 15.5188 13.0918 15.5188 13.3824V15.2202C15.5188 15.5112 15.7546 15.7468 16.0455 15.7468H17.8835C18.1741 15.7468 18.4099 15.5112 18.4099 15.2202V13.3824Z" fill="#7860B1"/>
<path d="M9.22275 17.9762C9.22275 17.6851 8.98697 17.4498 8.69605 17.4498H6.85808C6.56749 17.4498 6.33167 17.6851 6.33167 17.9762V19.8136C6.33167 20.1045 6.56749 20.34 6.85808 20.34H8.69605C8.98697 20.34 9.22275 20.1045 9.22275 19.8136V17.9762Z" fill="#7860B1"/>
<path d="M13.8162 17.9762C13.8162 17.6851 13.5804 17.4498 13.29 17.4498H11.4518C11.1612 17.4498 10.9254 17.6851 10.9254 17.9762V19.8136C10.9254 20.1045 11.1612 20.34 11.4518 20.34H13.29C13.5804 20.34 13.8162 20.1045 13.8162 19.8136V17.9762Z" fill="#7860B1"/>
<path d="M18.4099 17.9762C18.4099 17.6851 18.1741 17.4498 17.8837 17.4498H16.0455C15.7546 17.4498 15.5188 17.6851 15.5188 17.9762V19.8136C15.5188 20.1045 15.7546 20.34 16.0455 20.34H17.8837C18.1741 20.34 18.4099 20.1045 18.4099 19.8136V17.9762Z" fill="#7860B1"/>
<path d="M21.6962 3.16425V5.97124C21.6962 7.23997 20.667 8.26237 19.3985 8.26237H17.949C16.6803 8.26237 15.6374 7.23997 15.6374 5.97124V3.15417H9.10411V5.97124C9.10411 7.23997 8.06127 8.26237 6.79282 8.26237H5.34303C4.07453 8.26237 3.04534 7.23997 3.04534 5.97124V3.16425C1.93666 3.19767 1.02563 4.11506 1.02563 5.24266V21.693C1.02563 22.8417 1.95677 23.7852 3.10556 23.7852H21.636C22.7831 23.7852 23.7159 22.8398 23.7159 21.693V5.24266C23.7159 4.11506 22.8049 3.19767 21.6962 3.16425ZM21.023 20.6686C21.023 21.165 20.6205 21.5678 20.1238 21.5678H4.57813C4.08147 21.5678 3.67894 21.165 3.67894 20.6686V12.1714C3.67894 11.6747 4.08143 11.272 4.57813 11.272H20.1238C20.6204 11.272 21.0229 11.6747 21.0229 12.1714L21.023 20.6686Z" fill="#7860B1"/>
<path d="M5.33798 6.75755H6.77175C7.20694 6.75755 7.5598 6.40521 7.5598 5.97002V1.36832C7.5598 0.933078 7.20694 0.580505 6.77175 0.580505H5.33798C4.90274 0.580505 4.54993 0.933078 4.54993 1.36832V5.97002C4.54993 6.40521 4.90274 6.75755 5.33798 6.75755Z" fill="#7860B1"/>
<path d="M17.9305 6.75755H19.3642C19.7991 6.75755 20.152 6.40521 20.152 5.97002V1.36832C20.152 0.933078 19.7992 0.580505 19.3642 0.580505H17.9305C17.4953 0.580505 17.1425 0.933078 17.1425 1.36832V5.97002C17.1425 6.40521 17.4953 6.75755 17.9305 6.75755Z" fill="#7860B1"/>
</g>
<defs>
<clipPath id="clip0">
<rect x="0.768433" y="0.580505" width="23.2047" height="23.2047" fill="white"/>
</clipPath>
</defs>
</svg>
