<svg width="26" height="18" viewBox="0 0 26 18" fill="none" xmlns="http://www.w3.org/2000/svg">
<path d="M23.3085 17.5994C23.8649 17.5994 24.3469 17.4339 24.7567 17.107L17.7446 10.7869C17.5764 10.8954 17.4133 11.001 17.2593 11.1014C16.7346 11.4499 16.3087 11.7218 15.9816 11.9166C15.6546 12.1119 15.2196 12.311 14.6765 12.5142C14.133 12.7177 13.6267 12.8191 13.1571 12.8191H13.1433H13.1296C12.6599 12.8191 12.1536 12.7177 11.6102 12.5142C11.0668 12.311 10.6317 12.1119 10.305 11.9166C9.97804 11.7218 9.55237 11.4499 9.02735 11.1014C8.88104 11.0047 8.71878 10.8987 8.54335 10.7852L1.52991 17.107C1.93967 17.4339 2.42205 17.5994 2.97835 17.5994H23.3085Z" fill="#7860B1"/>
<path d="M2.16354 6.8165C1.63883 6.5012 1.17352 6.14009 0.768433 5.73334V15.3493L6.94887 9.77875C5.71243 9.00072 4.11934 8.01444 2.16354 6.8165Z" fill="#7860B1"/>
<path d="M24.1412 6.81658C22.26 7.9643 20.6611 8.95236 19.3444 9.78128L25.5223 15.3503V5.73334C25.1262 6.13194 24.6659 6.49283 24.1412 6.81658Z" fill="#7860B1"/>
<path d="M23.3084 0.0771484H2.97824C2.26899 0.0771484 1.7237 0.293076 1.3417 0.724486C0.959395 1.1561 0.768555 1.69588 0.768555 2.34321C0.768555 2.8661 1.02181 3.43266 1.52809 4.04305C2.03438 4.65319 2.57311 5.13245 3.14401 5.48105C3.45698 5.68041 4.4008 6.27196 5.97547 7.25551C6.82551 7.78658 7.56474 8.24946 8.19999 8.64891C8.74146 8.98905 9.20842 9.28361 9.59397 9.52806C9.63823 9.55605 9.70783 9.60094 9.80022 9.66049C9.89975 9.72494 10.0257 9.80674 10.1811 9.90789C10.4803 10.103 10.7289 10.2607 10.9269 10.3812C11.1246 10.5017 11.3641 10.6363 11.6452 10.7858C11.926 10.9351 12.1908 11.0474 12.4394 11.122C12.688 11.1967 12.9182 11.2341 13.1299 11.2341H13.1437H13.1574C13.3691 11.2341 13.5993 11.1967 13.848 11.122C14.0965 11.0474 14.3611 10.9354 14.6422 10.7858C14.9229 10.6363 15.1622 10.5014 15.3605 10.3812C15.5585 10.2607 15.8071 10.103 16.1063 9.90789C16.2614 9.80674 16.3874 9.7249 16.4869 9.66069C16.5793 9.6009 16.6489 9.55629 16.6934 9.52806C16.9938 9.33963 17.4618 9.04629 18.0911 8.65235C19.2361 7.93509 20.9224 6.8794 23.1572 5.48105C23.8293 5.05783 24.3908 4.54709 24.8421 3.94959C25.2925 3.35208 25.5184 2.72532 25.5184 2.06952C25.5184 1.5216 25.2994 1.05275 24.8624 0.66226C24.4249 0.272253 23.9069 0.0771484 23.3084 0.0771484Z" fill="#7860B1"/>
</svg>
