<svg width="17" height="29" viewBox="0 0 17 29" fill="none" xmlns="http://www.w3.org/2000/svg">
<path d="M14.3518 0.291931H1.93741C0.903148 0.291931 0.0566406 1.13764 0.0566406 2.17271V26.256C0.0566406 27.2911 0.903148 28.1376 1.93741 28.1376H14.3518C15.3861 28.1376 16.2326 27.2927 16.2326 26.2568V2.17271C16.2326 1.13764 15.3861 0.291931 14.3518 0.291931ZM6.15881 1.64762H10.1304C10.2561 1.64762 10.3579 1.74945 10.3579 1.87595C10.3579 2.00165 10.2561 2.10349 10.1304 2.10349H6.15881C6.03311 2.10349 5.93127 2.00165 5.93127 1.87595C5.93127 1.74945 6.03311 1.64762 6.15881 1.64762ZM8.14461 27.1972C7.62509 27.1972 7.20422 26.7763 7.20422 26.256C7.20422 25.7357 7.62509 25.3156 8.14461 25.3156C8.66413 25.3156 9.08499 25.7357 9.08499 26.256C9.08499 26.7763 8.66413 27.1972 8.14461 27.1972ZM14.9238 24.6569H1.36539V3.2746H14.9238V24.6569Z" fill="#7860B1"/>
</svg>
