<svg width="20" height="25" viewBox="0 0 20 25" fill="none" xmlns="http://www.w3.org/2000/svg">
<path d="M10.1442 12.1085C12.8962 12.1085 15.1273 9.39868 15.1273 6.05593C15.1273 2.71311 14.3948 0.0032959 10.1442 0.0032959C5.89366 0.0032959 5.16101 2.71311 5.16101 6.05593C5.16101 9.39868 7.39213 12.1085 10.1442 12.1085Z" fill="#7860B1"/>
<path d="M19.5454 21.1056C19.4531 15.2825 18.6926 13.6232 12.8729 12.5729C12.8729 12.5729 12.0537 13.6168 10.1443 13.6168C8.23484 13.6168 7.41548 12.5729 7.41548 12.5729C1.6593 13.6117 0.852542 15.2464 0.746463 20.9165C0.737765 21.3795 0.733734 21.4038 0.732178 21.35C0.732531 21.4507 0.732955 21.637 0.732955 21.9618C0.732955 21.9618 2.11848 24.755 10.1443 24.755C18.1699 24.755 19.5556 21.9618 19.5556 21.9618C19.5556 21.7531 19.5557 21.608 19.5559 21.5093C19.5543 21.5425 19.5512 21.4781 19.5454 21.1056Z" fill="#7860B1"/>
</svg>
