<svg width="30" height="30" viewBox="0 0 30 30" fill="none" xmlns="http://www.w3.org/2000/svg">
<path d="M25.6045 4.39143C19.7458 -1.46554 10.2483 -1.46413 4.39131 4.39466C-1.46566 10.2534 -1.46426 19.7509 4.39453 25.6079C10.2533 31.4648 19.7508 31.4634 25.6078 25.6047C28.4206 22.7909 30.0004 18.975 29.9995 14.9964C29.9987 11.0185 28.4178 7.20382 25.6045 4.39143ZM22.7165 20.8945C22.7159 20.8951 22.7152 20.8958 22.7145 20.8965V20.8915L21.9545 21.6465C20.9716 22.6418 19.5401 23.0513 18.1795 22.7265C16.8087 22.3596 15.5056 21.7755 14.3195 20.9965C13.2176 20.2923 12.1964 19.469 11.2745 18.5415C10.4262 17.6994 9.66416 16.7748 8.99948 15.7815C8.27244 14.7126 7.697 13.5482 7.28948 12.3215C6.82231 10.8803 7.20944 9.29889 8.2895 8.23647L9.17948 7.34649C9.42692 7.09794 9.82899 7.09706 10.0775 7.3445C10.0781 7.34514 10.0788 7.34579 10.0795 7.34649L12.8895 10.1565C13.138 10.4039 13.1389 10.806 12.8914 11.0545C12.8908 11.0551 12.8902 11.0558 12.8895 11.0565L11.2395 12.7065C10.766 13.1748 10.7065 13.9189 11.0995 14.4565C11.6963 15.2755 12.3567 16.0462 13.0745 16.7615C13.8748 17.5653 14.7449 18.2965 15.6745 18.9465C16.2116 19.3212 16.9398 19.258 17.4045 18.7965L18.9994 17.1765C19.2469 16.928 19.6489 16.9271 19.8974 17.1745C19.8981 17.1752 19.8987 17.1758 19.8994 17.1765L22.7145 19.9965C22.9631 20.2439 22.9639 20.6459 22.7165 20.8945Z" fill="white"/>
</svg>
